<svg width="595" height="842" viewBox="0 0 595 842" fill="none" xmlns="http://www.w3.org/2000/svg">
<g clip-path="url(#clip0_601_559)">
<rect width="595" height="842" fill="white"/>
<path d="M154 672.5C187.121 692.487 215 716.5 215 775.5C215 798.5 208.282 826.488 200.5 843C144.46 843 89.5 844 -1 843C-1 792.466 -0.999996 715.5 -1 620C62 646 125 655 154 672.5Z" fill="#E2EADB"/>
<path d="M595.5 261.5C529 294 425.5 340.5 329.5 277C245 195 276 105.5 338.5 -0.499954C454.5 -6.50006 508 -5.49999 603 -5.49999C603 90.0001 599.5 201 595.5 261.5Z" fill="#F4F5EF"/>
<path d="M233.5 233.5C239.5 298 339.5 433.333 233.5 504C156 555.667 57.5 485.5 -0.999989 418C-0.999988 340 -1.00008 39.5001 -1.00006 -0.999884C39.237 -0.999888 237 -0.999939 298.5 -0.999939C293.047 17.6038 278.225 54.6445 269 84.0001C249.466 146.165 239 158.5 233.5 233.5Z" fill="#F8E5D6"/>
</g>
<defs>
<clipPath id="clip0_601_559">
<rect width="595" height="842" fill="white"/>
</clipPath>
</defs>
</svg>
