<svg width="100" height="126" viewBox="0 0 100 126" fill="none" xmlns="http://www.w3.org/2000/svg">
<rect width="100" height="100" rx="50" fill="#25262A"/>
<path d="M38.5 85C44.848 85 50 79.7733 50 73.3333V61.6666H38.5C32.152 61.6666 27 66.8933 27 73.3333C27 79.7733 32.152 85 38.5 85Z" fill="#0ACF83"/>
<path d="M27 50C27 43.56 32.152 38.3334 38.5 38.3334H50V61.6667H38.5C32.152 61.6667 27 56.44 27 50Z" fill="#A259FF"/>
<path d="M27 26.6667C27 20.2267 32.152 15 38.5 15H50V38.3333H38.5C32.152 38.3333 27 33.1067 27 26.6667Z" fill="#F24E1E"/>
<path d="M50 15H61.5C67.848 15 73 20.2267 73 26.6667C73 33.1067 67.848 38.3333 61.5 38.3333H50V15Z" fill="#FF7262"/>
<path d="M73 50C73 56.44 67.848 61.6667 61.5 61.6667C55.152 61.6667 50 56.44 50 50C50 43.56 55.152 38.3334 61.5 38.3334C67.848 38.3334 73 43.56 73 50Z" fill="#1ABCFE"/>
<path d="M31.7725 115.7H26.2881V121H23.8096V108.203H32.458V110.216H26.2881V113.696H31.7725V115.7ZM35.2002 111.49H40.377V119.014H42.9521V121H35.2002V119.014H37.9072V113.485H35.2002V111.49ZM37.7314 109.056C37.7314 108.868 37.7637 108.695 37.8281 108.537C37.8984 108.373 37.9951 108.232 38.1182 108.115C38.2412 108.004 38.3877 107.916 38.5576 107.852C38.7334 107.787 38.9268 107.755 39.1377 107.755C39.5713 107.755 39.9141 107.878 40.166 108.124C40.4238 108.364 40.5527 108.675 40.5527 109.056C40.5527 109.437 40.4238 109.75 40.166 109.996C39.9141 110.236 39.5713 110.356 39.1377 110.356C38.9268 110.356 38.7334 110.324 38.5576 110.26C38.3877 110.195 38.2412 110.104 38.1182 109.987C37.9951 109.876 37.8984 109.741 37.8281 109.583C37.7637 109.419 37.7314 109.243 37.7314 109.056ZM45.1143 116.175C45.1143 115.454 45.2021 114.795 45.3779 114.197C45.5596 113.6 45.8174 113.087 46.1514 112.659C46.4854 112.231 46.8896 111.9 47.3643 111.666C47.8389 111.432 48.375 111.314 48.9727 111.314C49.2949 111.314 49.5879 111.347 49.8516 111.411C50.1211 111.47 50.3643 111.561 50.5811 111.684C50.7451 111.771 50.8975 111.877 51.0381 112C51.1787 112.117 51.3076 112.249 51.4248 112.396L51.5215 111.49H53.7451V120.692C53.7451 121.337 53.6338 121.911 53.4111 122.415C53.1943 122.919 52.8896 123.344 52.4971 123.689C52.0986 124.035 51.6211 124.296 51.0645 124.472C50.5137 124.653 49.9043 124.744 49.2363 124.744C48.9492 124.744 48.6416 124.715 48.3135 124.656C47.9854 124.598 47.6602 124.507 47.3379 124.384C47.0156 124.261 46.7109 124.103 46.4238 123.909C46.1367 123.722 45.8906 123.496 45.6855 123.232L46.7842 121.747C46.9424 121.929 47.1123 122.087 47.2939 122.222C47.4756 122.362 47.666 122.477 47.8652 122.564C48.0586 122.652 48.2578 122.717 48.4629 122.758C48.6738 122.805 48.8906 122.828 49.1133 122.828C49.4707 122.828 49.7871 122.778 50.0625 122.679C50.3438 122.579 50.5781 122.433 50.7656 122.239C50.9355 122.063 51.0645 121.847 51.1523 121.589C51.2461 121.331 51.293 121.041 51.293 120.719V120.174C51.1758 120.303 51.0527 120.42 50.9238 120.525C50.7949 120.631 50.6572 120.725 50.5107 120.807C50.2939 120.924 50.0537 121.015 49.79 121.079C49.5322 121.144 49.2539 121.176 48.9551 121.176C48.3633 121.176 47.8301 121.056 47.3555 120.815C46.8867 120.569 46.4854 120.232 46.1514 119.805C45.8174 119.377 45.5596 118.87 45.3779 118.284C45.2021 117.692 45.1143 117.051 45.1143 116.359V116.175ZM47.5664 116.359C47.5664 116.758 47.6045 117.13 47.6807 117.476C47.7627 117.815 47.8857 118.111 48.0498 118.363C48.2139 118.621 48.4219 118.823 48.6738 118.97C48.9258 119.116 49.2246 119.189 49.5703 119.189C49.7812 119.189 49.9717 119.169 50.1416 119.128C50.3174 119.087 50.4756 119.028 50.6162 118.952C50.7627 118.87 50.8916 118.771 51.0029 118.653C51.1143 118.536 51.2109 118.404 51.293 118.258V114.232C51.2051 114.068 51.0996 113.925 50.9766 113.802C50.8535 113.679 50.7129 113.579 50.5547 113.503C50.4199 113.438 50.2705 113.389 50.1064 113.354C49.9482 113.318 49.7754 113.301 49.5879 113.301C49.2422 113.301 48.9434 113.377 48.6914 113.529C48.4395 113.676 48.2314 113.878 48.0674 114.136C47.8975 114.399 47.7715 114.707 47.6895 115.059C47.6074 115.404 47.5664 115.776 47.5664 116.175V116.359ZM57.6914 111.49L57.7617 112.642C57.9434 112.231 58.1924 111.909 58.5088 111.675C58.8311 111.435 59.2207 111.314 59.6777 111.314C59.9004 111.314 60.0996 111.341 60.2754 111.394C60.4512 111.446 60.6035 111.528 60.7324 111.64C60.832 111.722 60.917 111.821 60.9873 111.938C61.0635 112.05 61.1279 112.179 61.1807 112.325C61.2627 112.185 61.3535 112.059 61.4531 111.947C61.5586 111.83 61.6729 111.73 61.7959 111.648C61.9482 111.543 62.1211 111.461 62.3145 111.402C62.5078 111.344 62.7188 111.314 62.9473 111.314C63.2344 111.314 63.501 111.367 63.7471 111.473C63.999 111.578 64.2188 111.745 64.4062 111.974C64.5879 112.208 64.7285 112.51 64.8281 112.879C64.9336 113.242 64.9863 113.688 64.9863 114.215V121H62.7627V114.206C62.7627 114.024 62.7422 113.875 62.7012 113.758C62.666 113.641 62.6162 113.547 62.5518 113.477C62.4873 113.412 62.4111 113.368 62.3232 113.345C62.2412 113.315 62.1562 113.301 62.0684 113.301C61.9746 113.301 61.8896 113.312 61.8135 113.336C61.7432 113.359 61.6758 113.392 61.6113 113.433C61.5586 113.474 61.5117 113.521 61.4707 113.573C61.4297 113.62 61.3945 113.676 61.3652 113.74C61.3652 113.752 61.3652 113.778 61.3652 113.819C61.3652 113.86 61.3652 113.916 61.3652 113.986V121H59.2119V114.197C59.2119 114.016 59.1943 113.866 59.1592 113.749C59.124 113.632 59.0771 113.541 59.0186 113.477C58.9541 113.412 58.8809 113.368 58.7988 113.345C58.7168 113.315 58.6289 113.301 58.5352 113.301C58.4297 113.301 58.3359 113.318 58.2539 113.354C58.1719 113.389 58.0986 113.438 58.0342 113.503C57.9873 113.55 57.9463 113.605 57.9111 113.67C57.876 113.734 57.8438 113.805 57.8145 113.881V121H55.5908V111.49H57.6914ZM72.9229 121C72.8643 120.883 72.8145 120.748 72.7734 120.596C72.7324 120.443 72.6973 120.282 72.668 120.112C72.5332 120.259 72.3779 120.396 72.2021 120.525C72.0264 120.654 71.833 120.766 71.6221 120.859C71.4053 120.959 71.168 121.035 70.9102 121.088C70.6523 121.146 70.374 121.176 70.0752 121.176C69.5889 121.176 69.1406 121.105 68.7305 120.965C68.3262 120.824 67.9775 120.628 67.6846 120.376C67.3916 120.124 67.1631 119.825 66.999 119.479C66.835 119.128 66.7529 118.747 66.7529 118.337C66.7529 117.81 66.8555 117.344 67.0605 116.939C67.2656 116.529 67.5732 116.192 67.9834 115.929C68.3525 115.688 68.8066 115.507 69.3457 115.384C69.8906 115.255 70.5146 115.19 71.2178 115.19H72.5801V114.628C72.5801 114.405 72.5449 114.206 72.4746 114.03C72.4043 113.849 72.2988 113.693 72.1582 113.564C72.0117 113.43 71.8271 113.327 71.6045 113.257C71.3877 113.181 71.1328 113.143 70.8398 113.143C70.582 113.143 70.3594 113.175 70.1719 113.239C69.9844 113.298 69.832 113.383 69.7148 113.494C69.6094 113.594 69.5303 113.714 69.4775 113.854C69.4307 113.995 69.4072 114.15 69.4072 114.32H66.9639C66.9639 113.916 67.0518 113.532 67.2275 113.169C67.4092 112.806 67.6729 112.486 68.0186 112.211C68.3584 111.936 68.7744 111.719 69.2666 111.561C69.7646 111.396 70.333 111.314 70.9717 111.314C71.5459 111.314 72.0791 111.385 72.5713 111.525C73.0693 111.666 73.5 111.874 73.8633 112.149C74.2266 112.425 74.5107 112.773 74.7158 113.195C74.9209 113.611 75.0234 114.095 75.0234 114.646V118.724C75.0234 119.233 75.0557 119.655 75.1201 119.989C75.1846 120.323 75.2783 120.61 75.4014 120.851V121H72.9229ZM70.5938 119.286C70.8398 119.286 71.0684 119.257 71.2793 119.198C71.4902 119.14 71.6807 119.063 71.8506 118.97C72.0205 118.876 72.167 118.771 72.29 118.653C72.4131 118.53 72.5098 118.407 72.5801 118.284V116.649H71.332C70.9512 116.649 70.626 116.688 70.3564 116.764C70.0869 116.834 69.8672 116.934 69.6973 117.062C69.5273 117.197 69.4014 117.358 69.3193 117.546C69.2373 117.728 69.1963 117.927 69.1963 118.144C69.1963 118.313 69.2256 118.472 69.2842 118.618C69.3486 118.759 69.4395 118.879 69.5566 118.979C69.6738 119.072 69.8174 119.148 69.9873 119.207C70.1631 119.26 70.3652 119.286 70.5938 119.286Z" fill="#777777"/>
</svg>
