<svg width="100" height="126" viewBox="0 0 100 126" fill="none" xmlns="http://www.w3.org/2000/svg">
<rect width="100" height="100" rx="50" fill="#25262A"/>
<path d="M50 11.5C72.1 11.5 90 29.1645 90 50.9738C89.9979 59.2446 87.3675 67.3064 82.4792 74.0247C77.5909 80.7429 70.6907 85.7791 62.75 88.4246C60.75 88.8193 60 87.5858 60 86.5496C60 85.2173 60.05 80.9739 60.05 75.6943C60.05 71.9936 58.8 69.6252 57.35 68.3916C66.25 67.4048 75.6 64.0495 75.6 48.9014C75.6 44.5593 74.05 41.056 71.5 38.2928C71.9 37.306 73.3 33.2599 71.1 27.8323C71.1 27.8323 67.75 26.7468 60.1 31.8784C56.9 30.9902 53.5 30.5461 50.1 30.5461C46.7 30.5461 43.3 30.9902 40.1 31.8784C32.45 26.7961 29.1 27.8323 29.1 27.8323C26.9 33.2599 28.3 37.306 28.7 38.2928C26.15 41.056 24.6 44.6087 24.6 48.9014C24.6 64.0002 33.9 67.4048 42.8 68.3916C41.65 69.3785 40.6 71.1055 40.25 73.6713C37.95 74.7074 32.2 76.3851 28.6 70.4147C27.85 69.2304 25.6 66.3193 22.45 66.3686C19.1 66.4179 21.1 68.2436 22.5 68.9837C24.2 69.9212 26.15 73.4245 26.6 74.5594C27.4 76.7798 30 81.0233 40.05 79.1976C40.05 82.5035 40.1 85.6121 40.1 86.5496C40.1 87.5858 39.35 88.77 37.35 88.4246C29.3832 85.8077 22.4537 80.7815 17.5445 74.0593C12.6352 67.337 9.9956 59.2599 10 50.9738C10 29.1645 27.9 11.5 50 11.5Z" fill="white"/>
<path d="M27.4492 119.506C27.291 119.699 27.0742 119.896 26.7988 120.095C26.5234 120.294 26.1982 120.473 25.8232 120.631C25.4424 120.795 25.0176 120.927 24.5488 121.026C24.0801 121.126 23.5762 121.176 23.0371 121.176C22.5684 121.176 22.126 121.12 21.71 121.009C21.2998 120.903 20.9219 120.748 20.5762 120.543C20.2363 120.332 19.9258 120.074 19.6445 119.77C19.3691 119.465 19.1348 119.116 18.9414 118.724C18.7188 118.29 18.5488 117.801 18.4316 117.256C18.3203 116.711 18.2646 116.119 18.2646 115.48V113.74C18.2646 113.131 18.3203 112.565 18.4316 112.044C18.543 111.517 18.7012 111.039 18.9062 110.611C19.0996 110.23 19.3223 109.888 19.5742 109.583C19.832 109.278 20.1133 109.015 20.418 108.792C20.7754 108.54 21.165 108.35 21.5869 108.221C22.0088 108.092 22.4541 108.027 22.9229 108.027C23.6436 108.027 24.2705 108.118 24.8037 108.3C25.3428 108.481 25.7969 108.742 26.166 109.082C26.5352 109.428 26.8223 109.847 27.0273 110.339C27.2383 110.831 27.376 111.385 27.4404 112H25.0322C24.9912 111.689 24.9268 111.414 24.8389 111.174C24.7568 110.934 24.6426 110.731 24.4961 110.567C24.332 110.386 24.124 110.251 23.8721 110.163C23.626 110.069 23.3301 110.022 22.9844 110.022C22.7969 110.022 22.6152 110.052 22.4395 110.11C22.2637 110.169 22.0996 110.254 21.9473 110.365C21.748 110.518 21.5664 110.717 21.4023 110.963C21.2441 111.209 21.1123 111.499 21.0068 111.833C20.9248 112.091 20.8604 112.378 20.8135 112.694C20.7725 113.011 20.752 113.354 20.752 113.723V115.48C20.752 115.943 20.7812 116.365 20.8398 116.746C20.9043 117.127 20.9922 117.464 21.1035 117.757C21.1738 117.927 21.2529 118.085 21.3408 118.231C21.4346 118.372 21.5371 118.498 21.6484 118.609C21.8359 118.797 22.0527 118.94 22.2988 119.04C22.5508 119.134 22.835 119.184 23.1514 119.189C23.3447 119.189 23.5352 119.175 23.7227 119.146C23.9102 119.116 24.0859 119.075 24.25 119.022C24.4141 118.97 24.5576 118.911 24.6807 118.847C24.8096 118.776 24.9062 118.703 24.9707 118.627L24.9795 116.307H22.8613V114.461H27.4404L27.4492 119.506ZM30.2002 111.49H35.377V119.014H37.9521V121H30.2002V119.014H32.9072V113.485H30.2002V111.49ZM32.7314 109.056C32.7314 108.868 32.7637 108.695 32.8281 108.537C32.8984 108.373 32.9951 108.232 33.1182 108.115C33.2412 108.004 33.3877 107.916 33.5576 107.852C33.7334 107.787 33.9268 107.755 34.1377 107.755C34.5713 107.755 34.9141 107.878 35.166 108.124C35.4238 108.364 35.5527 108.675 35.5527 109.056C35.5527 109.437 35.4238 109.75 35.166 109.996C34.9141 110.236 34.5713 110.356 34.1377 110.356C33.9268 110.356 33.7334 110.324 33.5576 110.26C33.3877 110.195 33.2412 110.104 33.1182 109.987C32.9951 109.876 32.8984 109.741 32.8281 109.583C32.7637 109.419 32.7314 109.243 32.7314 109.056ZM44.8428 109.161V111.49H48.3936V113.292H44.8428V117.379C44.8428 117.725 44.8809 118.015 44.957 118.249C45.0391 118.478 45.1533 118.659 45.2998 118.794C45.4463 118.935 45.6221 119.034 45.8271 119.093C46.0381 119.151 46.2725 119.181 46.5303 119.181C46.7178 119.181 46.9082 119.172 47.1016 119.154C47.3008 119.137 47.4912 119.113 47.6729 119.084C47.8486 119.061 48.0127 119.034 48.165 119.005C48.3232 118.976 48.458 118.946 48.5693 118.917L48.8066 120.596C48.6367 120.695 48.4375 120.783 48.209 120.859C47.9805 120.93 47.7373 120.988 47.4795 121.035C47.2217 121.082 46.9521 121.117 46.6709 121.141C46.3955 121.17 46.123 121.185 45.8535 121.185C45.332 121.185 44.8574 121.117 44.4297 120.982C44.0078 120.842 43.6475 120.625 43.3486 120.332C43.0439 120.045 42.8096 119.679 42.6455 119.233C42.4814 118.782 42.3994 118.243 42.3994 117.616V113.292H40.2285V111.49H42.3994V109.161H44.8428ZM53.6143 112.8C53.7373 112.618 53.8721 112.451 54.0186 112.299C54.1709 112.141 54.3291 112.003 54.4932 111.886C54.7451 111.704 55.0234 111.563 55.3281 111.464C55.6328 111.364 55.9551 111.314 56.2949 111.314C56.793 111.314 57.25 111.391 57.666 111.543C58.082 111.689 58.4395 111.921 58.7383 112.237C59.0371 112.554 59.2686 112.961 59.4326 113.459C59.6025 113.951 59.6875 114.546 59.6875 115.243V121H57.2441V115.226C57.2441 114.886 57.2002 114.593 57.1123 114.347C57.0303 114.101 56.9102 113.901 56.752 113.749C56.5938 113.597 56.4033 113.485 56.1807 113.415C55.958 113.339 55.7061 113.301 55.4248 113.301C55.208 113.301 55.0059 113.321 54.8184 113.362C54.6309 113.403 54.4609 113.465 54.3086 113.547C54.168 113.617 54.0391 113.702 53.9219 113.802C53.8105 113.901 53.708 114.013 53.6143 114.136V121H51.1709V107.5H53.6143V112.8ZM68.1865 121L68.0459 119.664C67.7236 120.139 67.334 120.511 66.877 120.78C66.4258 121.05 65.9307 121.185 65.3916 121.185C64.8994 121.185 64.4482 121.108 64.0381 120.956C63.6279 120.804 63.2764 120.561 62.9834 120.227C62.6904 119.898 62.4619 119.479 62.2979 118.97C62.1396 118.454 62.0605 117.836 62.0605 117.115V111.49H64.5039V117.133C64.5039 117.52 64.5303 117.845 64.583 118.108C64.6416 118.372 64.7324 118.583 64.8555 118.741C64.9785 118.905 65.1396 119.022 65.3389 119.093C65.5381 119.163 65.7812 119.198 66.0684 119.198C66.3262 119.198 66.5576 119.172 66.7627 119.119C66.9736 119.066 67.1582 118.99 67.3164 118.891C67.4512 118.803 67.5713 118.697 67.6768 118.574C67.7822 118.451 67.873 118.313 67.9492 118.161V111.49H70.4014V121H68.1865ZM81.3613 116.342C81.3613 116.799 81.3291 117.232 81.2646 117.643C81.2002 118.047 81.1064 118.422 80.9834 118.768C80.8486 119.148 80.6699 119.494 80.4473 119.805C80.2305 120.115 79.9727 120.373 79.6738 120.578C79.4043 120.771 79.0996 120.918 78.7598 121.018C78.4258 121.123 78.0566 121.176 77.6523 121.176C77.2832 121.176 76.9463 121.129 76.6416 121.035C76.3428 120.947 76.0732 120.815 75.833 120.64C75.7041 120.552 75.584 120.455 75.4727 120.35C75.3613 120.238 75.2559 120.118 75.1562 119.989L75.042 121H72.8447V107.5H75.2881V112.352C75.4053 112.217 75.5312 112.094 75.666 111.982C75.8008 111.865 75.9443 111.766 76.0967 111.684C76.3135 111.561 76.5479 111.47 76.7998 111.411C77.0576 111.347 77.3359 111.314 77.6348 111.314C78.0449 111.314 78.4199 111.367 78.7598 111.473C79.1055 111.578 79.4131 111.73 79.6826 111.93C79.8994 112.082 80.0957 112.267 80.2715 112.483C80.4473 112.694 80.6025 112.926 80.7373 113.178C80.9482 113.582 81.1035 114.036 81.2031 114.54C81.3086 115.044 81.3613 115.583 81.3613 116.157V116.342ZM78.918 116.157C78.918 115.905 78.9062 115.662 78.8828 115.428C78.8594 115.193 78.8213 114.974 78.7686 114.769C78.7041 114.528 78.6191 114.314 78.5137 114.127C78.4141 113.934 78.2617 113.758 78.0566 113.6C77.9219 113.5 77.7695 113.427 77.5996 113.38C77.4297 113.327 77.2363 113.301 77.0195 113.301C76.7266 113.301 76.4688 113.342 76.2461 113.424C76.0234 113.506 75.833 113.626 75.6748 113.784C75.5986 113.86 75.5283 113.948 75.4639 114.048C75.3994 114.142 75.3408 114.244 75.2881 114.355V118.144C75.3584 118.29 75.4375 118.425 75.5254 118.548C75.6191 118.665 75.7275 118.768 75.8506 118.855C75.9971 118.967 76.167 119.052 76.3604 119.11C76.5596 119.169 76.7852 119.198 77.0371 119.198C77.2539 119.198 77.4502 119.172 77.626 119.119C77.8018 119.066 77.9541 118.993 78.083 118.899C78.2646 118.771 78.4111 118.604 78.5225 118.398C78.6396 118.188 78.7275 117.95 78.7861 117.687C78.833 117.493 78.8652 117.282 78.8828 117.054C78.9062 116.825 78.918 116.588 78.918 116.342V116.157Z" fill="#777777"/>
</svg>
