<svg width="100" height="126" viewBox="0 0 100 126" fill="none" xmlns="http://www.w3.org/2000/svg">
<rect width="100" height="100" rx="50" fill="#25262A"/>
<path d="M50 84C68.7777 84 84 68.7777 84 50C84 31.2223 68.7777 16 50 16C31.2223 16 16 31.2223 16 50C16 68.7777 31.2223 84 50 84Z" fill="white"/>
<path d="M64.8644 28.5807C61.4105 28.7012 58.3955 30.6047 56.1515 33.2384C53.6666 36.1256 52.0135 39.5502 50.8223 43.046C48.6915 41.2997 47.0478 39.0389 43.6295 38.0531C40.9874 37.2947 38.2123 37.6079 35.6604 39.5093C34.4514 40.4124 33.6186 41.7774 33.2226 43.0607C32.197 46.3952 34.3006 49.3631 35.256 50.4285L37.3449 52.6672C37.7755 53.1062 38.8126 54.2512 38.3056 55.8928C37.7577 57.6779 35.6059 58.8334 33.3986 58.1525C32.4128 57.8518 30.9964 57.1174 31.3139 56.0835C31.4448 55.6602 31.7476 55.3439 31.9099 54.9782C32.0587 54.664 32.1299 54.4282 32.175 54.29C32.5783 52.9731 32.0273 51.2603 30.6172 50.8255C29.3014 50.4222 27.9552 50.7417 27.4335 52.4357C26.8416 54.3602 27.7625 57.8529 32.6956 59.374C38.4753 61.1497 43.3644 58.0027 44.058 53.8982C44.4948 51.3273 43.3341 49.4176 41.2074 46.9609L39.4747 45.0449C38.425 43.9962 38.0646 42.209 39.151 40.8356C40.0676 39.6769 41.373 39.1825 43.5111 39.7639C46.6319 40.6114 48.0231 42.7768 50.3446 44.5232C49.3861 47.667 48.7596 50.8224 48.1929 53.652L47.8471 55.7619C46.1877 64.4653 44.9212 69.2445 41.6296 71.9882C40.9665 72.4596 40.0184 73.1657 38.5895 73.2149C37.8404 73.238 37.5984 72.7226 37.588 72.4984C37.5701 71.9725 38.0133 71.7315 38.3077 71.4948C38.7477 71.2549 39.4129 70.8568 39.3678 69.5818C39.3196 68.0754 38.0719 66.769 36.268 66.8287C34.9166 66.8748 32.857 68.1466 32.9345 70.4744C33.0152 72.8787 35.256 74.6805 38.6345 74.5663C40.4406 74.5045 44.4739 73.7691 48.4485 69.0444C53.0747 63.6283 54.3685 57.4192 55.3417 52.8747L56.4281 46.875C57.0315 46.9473 57.6768 46.9955 58.3787 47.0123C64.1405 47.1338 67.0225 44.1492 67.0654 41.9785C67.0937 40.6648 66.2033 39.3721 64.9566 39.4014C64.0641 39.4266 62.9431 40.0205 62.6739 41.2546C62.4109 42.4657 64.5072 43.5583 62.8687 44.6195C61.7049 45.3728 59.618 45.9039 56.6795 45.4723L57.2138 42.5191C58.3043 36.9186 59.6495 30.0295 64.7523 29.8619C65.1242 29.8431 66.4851 29.8787 66.5165 30.7786C66.5259 31.0792 66.4515 31.1557 66.0996 31.844C65.7413 32.3804 65.6061 32.8371 65.6229 33.362C65.6721 34.792 66.7595 35.7317 68.332 35.6751C70.4377 35.607 71.0432 33.5568 71.0086 32.504C70.9238 30.0306 68.3163 28.4676 64.8644 28.5807Z" fill="#25262A"/>
<path d="M19.7959 117.66C19.7959 117.432 19.7549 117.218 19.6729 117.019C19.5967 116.819 19.4648 116.632 19.2773 116.456C19.084 116.286 18.832 116.131 18.5215 115.99C18.2168 115.844 17.8359 115.709 17.3789 115.586C16.6699 115.393 16.0459 115.158 15.5068 114.883C14.9736 114.607 14.5371 114.306 14.1973 113.978C13.8574 113.649 13.5996 113.286 13.4238 112.888C13.2539 112.489 13.1689 112.056 13.1689 111.587C13.1689 111.048 13.2832 110.559 13.5117 110.119C13.7402 109.68 14.0566 109.305 14.4609 108.994C14.8652 108.684 15.3428 108.446 15.8936 108.282C16.4443 108.112 17.042 108.027 17.6865 108.027C18.3545 108.027 18.9639 108.124 19.5146 108.317C20.0713 108.511 20.5488 108.78 20.9473 109.126C21.3457 109.478 21.6562 109.894 21.8789 110.374C22.1016 110.854 22.2129 111.382 22.2129 111.956H19.8047C19.793 111.669 19.7402 111.405 19.6465 111.165C19.5586 110.925 19.4268 110.717 19.251 110.541C19.0693 110.371 18.8438 110.239 18.5742 110.146C18.3105 110.046 18 109.996 17.6426 109.996C17.3145 109.996 17.0215 110.037 16.7637 110.119C16.5117 110.195 16.2979 110.304 16.1221 110.444C15.9463 110.591 15.8115 110.764 15.7178 110.963C15.6299 111.156 15.5859 111.367 15.5859 111.596C15.5859 111.836 15.6445 112.053 15.7617 112.246C15.8848 112.439 16.0605 112.612 16.2891 112.765C16.5176 112.923 16.793 113.066 17.1152 113.195C17.4434 113.324 17.8125 113.444 18.2227 113.556C18.6621 113.679 19.0811 113.828 19.4795 114.004C19.8779 114.18 20.2441 114.382 20.5781 114.61C21.082 114.985 21.4834 115.422 21.7822 115.92C22.0811 116.418 22.2305 116.992 22.2305 117.643C22.2305 118.205 22.1162 118.706 21.8877 119.146C21.665 119.579 21.3545 119.945 20.9561 120.244C20.5576 120.549 20.083 120.78 19.5322 120.938C18.9814 121.091 18.3809 121.167 17.7305 121.167C17.0918 121.167 16.459 121.073 15.832 120.886C15.2109 120.692 14.6689 120.411 14.2061 120.042C13.7666 119.679 13.418 119.251 13.1602 118.759C12.9082 118.267 12.7822 117.689 12.7822 117.027H15.208C15.2197 117.414 15.2871 117.745 15.4102 118.021C15.5332 118.296 15.7061 118.521 15.9287 118.697C16.1455 118.873 16.4062 119.002 16.7109 119.084C17.0215 119.166 17.3613 119.207 17.7305 119.207C18.0586 119.207 18.3486 119.169 18.6006 119.093C18.8584 119.017 19.0752 118.911 19.251 118.776C19.4268 118.642 19.5615 118.48 19.6553 118.293C19.749 118.1 19.7959 117.889 19.7959 117.66ZM25.5527 124.841C25.3184 124.841 25.1133 124.826 24.9375 124.797C24.7676 124.768 24.5771 124.724 24.3662 124.665L24.665 122.802C24.7646 122.802 24.8906 122.805 25.043 122.811C25.2012 122.822 25.3271 122.828 25.4209 122.828C25.6143 122.828 25.7842 122.767 25.9307 122.644C26.083 122.526 26.2119 122.397 26.3174 122.257C26.4229 122.116 26.499 122.011 26.5459 121.94C26.5986 121.87 26.6602 121.771 26.7305 121.642L27.293 120.596L23.2676 111.49H25.9395L28.1191 117.062L28.3828 118.029L28.7432 117.08L30.9141 111.49H33.6123L28.7871 122.424C28.6816 122.664 28.5439 122.925 28.374 123.206C28.21 123.487 28.002 123.748 27.75 123.988C27.498 124.229 27.1904 124.431 26.8271 124.595C26.4697 124.759 26.0449 124.841 25.5527 124.841ZM36.3809 111.49L36.4512 112.642C36.6328 112.231 36.8818 111.909 37.1982 111.675C37.5205 111.435 37.9102 111.314 38.3672 111.314C38.5898 111.314 38.7891 111.341 38.9648 111.394C39.1406 111.446 39.293 111.528 39.4219 111.64C39.5215 111.722 39.6064 111.821 39.6768 111.938C39.7529 112.05 39.8174 112.179 39.8701 112.325C39.9521 112.185 40.043 112.059 40.1426 111.947C40.248 111.83 40.3623 111.73 40.4854 111.648C40.6377 111.543 40.8105 111.461 41.0039 111.402C41.1973 111.344 41.4082 111.314 41.6367 111.314C41.9238 111.314 42.1904 111.367 42.4365 111.473C42.6885 111.578 42.9082 111.745 43.0957 111.974C43.2773 112.208 43.418 112.51 43.5176 112.879C43.623 113.242 43.6758 113.688 43.6758 114.215V121H41.4521V114.206C41.4521 114.024 41.4316 113.875 41.3906 113.758C41.3555 113.641 41.3057 113.547 41.2412 113.477C41.1768 113.412 41.1006 113.368 41.0127 113.345C40.9307 113.315 40.8457 113.301 40.7578 113.301C40.6641 113.301 40.5791 113.312 40.5029 113.336C40.4326 113.359 40.3652 113.392 40.3008 113.433C40.248 113.474 40.2012 113.521 40.1602 113.573C40.1191 113.62 40.084 113.676 40.0547 113.74C40.0547 113.752 40.0547 113.778 40.0547 113.819C40.0547 113.86 40.0547 113.916 40.0547 113.986V121H37.9014V114.197C37.9014 114.016 37.8838 113.866 37.8486 113.749C37.8135 113.632 37.7666 113.541 37.708 113.477C37.6436 113.412 37.5703 113.368 37.4883 113.345C37.4062 113.315 37.3184 113.301 37.2246 113.301C37.1191 113.301 37.0254 113.318 36.9434 113.354C36.8613 113.389 36.7881 113.438 36.7236 113.503C36.6768 113.55 36.6357 113.605 36.6006 113.67C36.5654 113.734 36.5332 113.805 36.5039 113.881V121H34.2803V111.49H36.3809ZM48.0352 121V113.292H45.5391V111.49H48.0352V110.972C48.0352 110.345 48.1348 109.791 48.334 109.311C48.5332 108.83 48.8174 108.426 49.1865 108.098C49.5557 107.77 50.0039 107.523 50.5312 107.359C51.0586 107.189 51.6475 107.104 52.2979 107.104C52.5029 107.104 52.6992 107.113 52.8867 107.131C53.0801 107.143 53.2676 107.16 53.4492 107.184C53.6309 107.207 53.8125 107.233 53.9941 107.263C54.1816 107.292 54.375 107.324 54.5742 107.359L54.416 109.275C54.1934 109.229 53.9414 109.188 53.6602 109.152C53.3789 109.117 53.0479 109.1 52.667 109.1C52.2568 109.1 51.9082 109.146 51.6211 109.24C51.334 109.334 51.1055 109.472 50.9355 109.653C50.7832 109.806 50.6689 109.993 50.5928 110.216C50.5225 110.438 50.4873 110.69 50.4873 110.972V111.49H53.915V113.292H50.4873V121H48.0352ZM56.1475 116.157C56.1475 115.466 56.2471 114.827 56.4463 114.241C56.6455 113.649 56.9385 113.137 57.3252 112.703C57.7061 112.27 58.1719 111.93 58.7227 111.684C59.2793 111.438 59.915 111.314 60.6299 111.314C61.3447 111.314 61.9805 111.438 62.5371 111.684C63.0938 111.93 63.5654 112.27 63.9521 112.703C64.333 113.137 64.623 113.649 64.8223 114.241C65.0215 114.827 65.1211 115.466 65.1211 116.157V116.342C65.1211 117.039 65.0215 117.684 64.8223 118.275C64.623 118.861 64.333 119.371 63.9521 119.805C63.5713 120.238 63.1025 120.578 62.5459 120.824C61.9893 121.064 61.3564 121.185 60.6475 121.185C59.9326 121.185 59.2939 121.064 58.7314 120.824C58.1748 120.578 57.7061 120.238 57.3252 119.805C56.9385 119.371 56.6455 118.861 56.4463 118.275C56.2471 117.684 56.1475 117.039 56.1475 116.342V116.157ZM58.5908 116.342C58.5908 116.74 58.6289 117.115 58.7051 117.467C58.7812 117.812 58.9014 118.114 59.0654 118.372C59.2295 118.636 59.4404 118.844 59.6982 118.996C59.9619 119.148 60.2783 119.225 60.6475 119.225C61.0049 119.225 61.3125 119.148 61.5703 118.996C61.8281 118.844 62.0391 118.636 62.2031 118.372C62.3613 118.114 62.4785 117.812 62.5547 117.467C62.6309 117.115 62.6689 116.74 62.6689 116.342V116.157C62.6689 115.771 62.6309 115.404 62.5547 115.059C62.4785 114.713 62.3613 114.408 62.2031 114.145C62.0391 113.881 61.8281 113.673 61.5703 113.521C61.3125 113.368 60.999 113.292 60.6299 113.292C60.2666 113.292 59.9561 113.368 59.6982 113.521C59.4404 113.673 59.2295 113.881 59.0654 114.145C58.9014 114.408 58.7812 114.713 58.7051 115.059C58.6289 115.404 58.5908 115.771 58.5908 116.157V116.342ZM67.292 121V111.49H69.5068L69.6562 112.809C69.7793 112.633 69.9141 112.472 70.0605 112.325C70.207 112.179 70.3623 112.047 70.5264 111.93C70.8076 111.73 71.1152 111.578 71.4492 111.473C71.7832 111.367 72.1377 111.314 72.5127 111.314C72.9932 111.314 73.4326 111.385 73.8311 111.525C74.2295 111.666 74.5752 111.889 74.8682 112.193C75.1553 112.504 75.3779 112.902 75.5361 113.389C75.7002 113.869 75.7822 114.455 75.7822 115.146V121H73.3389V115.182C73.3389 114.807 73.2949 114.499 73.207 114.259C73.125 114.013 73.0049 113.819 72.8467 113.679C72.6885 113.538 72.498 113.441 72.2754 113.389C72.0527 113.33 71.8008 113.301 71.5195 113.301C71.2852 113.301 71.0684 113.327 70.8691 113.38C70.6758 113.433 70.5029 113.512 70.3506 113.617C70.2275 113.693 70.1162 113.784 70.0166 113.89C69.917 113.995 69.8262 114.112 69.7441 114.241V121H67.292ZM79.6055 124.841C79.3711 124.841 79.166 124.826 78.9902 124.797C78.8203 124.768 78.6299 124.724 78.4189 124.665L78.7178 122.802C78.8174 122.802 78.9434 122.805 79.0957 122.811C79.2539 122.822 79.3799 122.828 79.4736 122.828C79.667 122.828 79.8369 122.767 79.9834 122.644C80.1357 122.526 80.2646 122.397 80.3701 122.257C80.4756 122.116 80.5518 122.011 80.5986 121.94C80.6514 121.87 80.7129 121.771 80.7832 121.642L81.3457 120.596L77.3203 111.49H79.9922L82.1719 117.062L82.4355 118.029L82.7959 117.08L84.9668 111.49H87.665L82.8398 122.424C82.7344 122.664 82.5967 122.925 82.4268 123.206C82.2627 123.487 82.0547 123.748 81.8027 123.988C81.5508 124.229 81.2432 124.431 80.8799 124.595C80.5225 124.759 80.0977 124.841 79.6055 124.841Z" fill="#777777"/>
</svg>
