<svg width="100" height="126" viewBox="0 0 100 126" fill="none" xmlns="http://www.w3.org/2000/svg">
<rect width="100" height="100" rx="50" fill="#25262A"/>
<path d="M57.3851 27.5L50 40.2L42.6149 27.5H18.0645L50 82.5L81.9355 27.5H57.3851Z" fill="#42B883"/>
<path d="M57.3851 27.5L50 40.2L42.6149 27.5H30.8387L50 60.5L69.1613 27.5H57.3851Z" fill="#35495E"/>
<path d="M37.6396 121L33.7725 108.203H36.4971L38.668 116.562L38.8877 117.423L39.125 116.553L41.3047 108.203H44.0293L40.1533 121H37.6396ZM51.7549 121L51.6143 119.664C51.292 120.139 50.9023 120.511 50.4453 120.78C49.9941 121.05 49.499 121.185 48.96 121.185C48.4678 121.185 48.0166 121.108 47.6064 120.956C47.1963 120.804 46.8447 120.561 46.5518 120.227C46.2588 119.898 46.0303 119.479 45.8662 118.97C45.708 118.454 45.6289 117.836 45.6289 117.115V111.49H48.0723V117.133C48.0723 117.52 48.0986 117.845 48.1514 118.108C48.21 118.372 48.3008 118.583 48.4238 118.741C48.5469 118.905 48.708 119.022 48.9072 119.093C49.1064 119.163 49.3496 119.198 49.6367 119.198C49.8945 119.198 50.126 119.172 50.3311 119.119C50.542 119.066 50.7266 118.99 50.8848 118.891C51.0195 118.803 51.1396 118.697 51.2451 118.574C51.3506 118.451 51.4414 118.313 51.5176 118.161V111.49H53.9697V121H51.7549ZM60.9746 121.176C60.2422 121.176 59.5771 121.056 58.9795 120.815C58.3818 120.575 57.8691 120.247 57.4414 119.831C57.0137 119.421 56.6826 118.938 56.4482 118.381C56.2197 117.818 56.1055 117.218 56.1055 116.579V116.228C56.1055 115.501 56.2197 114.839 56.4482 114.241C56.6768 113.638 56.9961 113.119 57.4062 112.686C57.8164 112.252 58.3027 111.915 58.8652 111.675C59.4277 111.435 60.04 111.314 60.7021 111.314C61.3877 111.314 61.9971 111.429 62.5303 111.657C63.0693 111.88 63.5264 112.196 63.9014 112.606C64.2705 113.017 64.5518 113.512 64.7451 114.092C64.9385 114.666 65.0352 115.302 65.0352 115.999V117.036H58.584V117.062C58.666 117.443 58.7715 117.751 58.9004 117.985C59.0293 118.214 59.2021 118.422 59.4189 118.609C59.6416 118.803 59.8965 118.952 60.1836 119.058C60.4707 119.163 60.7842 119.216 61.124 119.216C61.6045 119.216 62.0703 119.125 62.5215 118.943C62.9727 118.762 63.3389 118.489 63.6201 118.126L64.8418 119.444C64.5312 119.884 64.0391 120.282 63.3652 120.64C62.6914 120.997 61.8945 121.176 60.9746 121.176ZM60.6846 113.292C60.4092 113.292 60.1572 113.342 59.9287 113.441C59.7002 113.535 59.501 113.673 59.3311 113.854C59.1553 114.036 59.0088 114.253 58.8916 114.505C58.7744 114.757 58.6865 115.038 58.6279 115.349H62.6357V115.155C62.6357 114.897 62.5889 114.654 62.4951 114.426C62.4014 114.197 62.2725 113.998 62.1084 113.828C61.9443 113.664 61.7422 113.535 61.502 113.441C61.2676 113.342 60.9951 113.292 60.6846 113.292Z" fill="#777777"/>
</svg>
